HIERARCHY
ROOT Hips
{
   OFFSET 0.00000 0.00000 0.00000
   CHANNELS 6 Xposition Yposition Zposition Zrotation Xrotation Yrotation
   JOINT RightUpLeg
   {
      OFFSET -8.945800 -8.667070 0.101652
      CHANNELS 3 Zrotation Xrotation Yrotation
      JOINT RightLeg
      {
         OFFSET 0.000000 -44.422697 1.372700
         CHANNELS 3 Zrotation Xrotation Yrotation
         JOINT RightFoot
         {
            OFFSET 0.253549 -42.092399 -1.460590
            CHANNELS 3 Zrotation Xrotation Yrotation
            JOINT RightToes
            {
               OFFSET 0.040000 -4.415090 8.499099
               CHANNELS 3 Zrotation Xrotation Yrotation
               End Site
               {
                  OFFSET -0.080000 -0.137448 9.779790
               }
            }
         }
      }
   }
   JOINT Spine
   {
      OFFSET 0.000000 11.890501 0.000000
      CHANNELS 3 Zrotation Xrotation Yrotation
      JOINT Spine1
      {
         OFFSET 0.000000 25.657401 0.127663
         CHANNELS 3 Zrotation Xrotation Yrotation
         JOINT HEad
         {
            OFFSET 0.000000 8.734161 0.011341
            CHANNELS 3 Zrotation Xrotation Yrotation
            End Site
            {
               OFFSET -0.290000 12.774200 2.513950
            }
         }
         JOINT LeftShoulder1
         {
            OFFSET 8.990000 -0.362252 -0.220000
            CHANNELS 3 Zrotation Xrotation Yrotation
            JOINT LeftArm
            {
               OFFSET 10.282700 -0.003380 0.322123
               CHANNELS 3 Zrotation Xrotation Yrotation
               JOINT LeftForeArm
               {
                  OFFSET 32.766900 0.099144 -1.424340
                  CHANNELS 3 Zrotation Xrotation Yrotation
                  JOINT LeftHand
                  {
                     OFFSET 27.564301 0.085362 1.022160
                     CHANNELS 3 Zrotation Xrotation Yrotation
                     End Site
                     {
                        OFFSET 16.744301 -0.600000 1.502910
                     }
                  }
               }
            }
         }
         JOINT RightShoulder
         {
            OFFSET -8.990000 -0.362252 -0.220000
            CHANNELS 3 Zrotation Xrotation Yrotation
            JOINT RightArm
            {
               OFFSET -10.282700 -0.003380 0.322123
               CHANNELS 3 Zrotation Xrotation Yrotation
               JOINT RightForeArm
               {
                  OFFSET -32.897098 0.099144 -1.424340
                  CHANNELS 3 Zrotation Xrotation Yrotation
                  JOINT RightHand
                  {
                     OFFSET -27.492101 0.085362 1.022160
                     CHANNELS 3 Zrotation Xrotation Yrotation
                     End Site
                     {
                        OFFSET -16.631201 -0.600000 1.502910
                     }
                  }
               }
            }
         }
      }
   }
   JOINT LeftUpLeg
   {
      OFFSET 8.945800 -8.667070 0.101652
      CHANNELS 3 Zrotation Xrotation Yrotation
      JOINT LeftLeg
      {
         OFFSET 0.000000 -44.422697 1.372700
         CHANNELS 3 Zrotation Xrotation Yrotation
         JOINT LeftFoot
         {
            OFFSET -0.253549 -42.092399 -1.460590
            CHANNELS 3 Zrotation Xrotation Yrotation
            JOINT LeftToes
            {
               OFFSET -0.040000 -4.415090 8.499099
               CHANNELS 3 Zrotation Xrotation Yrotation
               End Site
               {
                  OFFSET 0.080000 -0.047448 9.779790
               }
            }
         }
      }
   }
}
MOTION
Frames: 12
Frame Time: 0.016667
-867.360522 87.691067 460.299676 -64.440847 51.407870 -77.013682 -8.530415 -21.155517 0.932107 -143.464244 143.127639 -92.077172 22.126087 30.071677 12.419766 38.827416 -42.051368 -23.348151 53.698056 36.672054 63.906870 25.847688 10.744507 -66.988139 44.776135 23.874552 -43.648904 -72.473259 -19.494996 -49.580316 -7.257477 48.040255 -51.123119 24.578214 -0.486140 -46.861942 -26.038138 -30.490852 -96.750203 44.479975 83.576025 -12.758448 153.498926 -40.637044 198.227663 -1.426283 5.405940 41.110693 28.264245 -1.077287 90.179343 47.499086 36.842355 -15.462761 -21.801426 35.675321 99.806091 -66.448882 38.803312 19.055932 -0.367529 -12.957311 -47.852917
-865.894839 88.820332 461.660607 -59.967244 49.403773 -75.897752 -8.780146 -18.849833 11.887000 -135.023933 148.580821 252.017752 22.545881 29.128431 7.068354 39.240338 -44.252177 -26.482774 51.107495 33.036877 66.419048 28.831513 9.576104 -71.977066 44.779905 24.047404 -43.019100 -68.691315 -19.855736 -48.381867 -9.306479 42.488930 -51.796268 23.201202 2.855085 -48.689977 -26.339842 -29.970037 -96.663180 39.629625 87.438326 -9.408718 152.706036 -36.374435 199.188861 -0.895095 7.736246 38.484605 27.830417 -2.014372 93.615693 41.856096 30.147690 -13.308942 -19.391534 34.815619 104.566453 -63.473556 37.294216 19.504650 -0.280504 -13.185635 -46.190592
-864.578387 89.821919 462.784264 -55.564043 46.401443 -75.694369 -10.085345 -19.031456 13.309808 -129.266548 144.470618 236.782113 19.250021 29.940356 -2.033794 40.723142 -45.577982 -31.203702 46.171034 32.556534 70.183138 30.415826 6.062176 -75.131726 43.325550 23.186885 -41.709124 -65.407258 -19.472265 -48.033240 -12.121849 35.699179 -52.808441 21.640012 6.131745 -51.121323 -26.734209 -29.645845 -94.809876 35.045001 88.663416 -3.860338 152.641150 -31.884532 200.310665 -1.491354 9.175076 37.568380 27.161965 -3.620950 95.587760 37.209884 25.666449 -13.266002 -18.490936 33.391979 106.598947 -60.763221 36.363709 18.370397 0.648852 -12.750596 -45.952092
-863.266055 90.704583 463.834565 -53.201983 40.028494 -77.227767 -13.162651 -25.023627 1.735813 -115.109547 121.769159 219.247201 12.967918 31.972761 -15.693104 43.572628 -46.268070 -37.752149 39.240775 36.261256 73.913336 29.610602 4.656537 -78.780406 41.250408 21.571850 -39.870683 -60.478914 -18.150517 -47.530019 -14.722714 27.434396 -53.265343 20.328999 10.045095 -52.697628 -26.791946 -28.335292 -92.597387 28.096289 90.063393 2.600448 150.435668 -28.423130 202.018117 -1.325037 12.240607 37.328203 26.166923 -4.956762 96.450358 30.781504 25.159770 -13.375702 -20.154959 31.247197 107.111081 -57.737959 35.976280 17.468561 1.895877 -11.728598 -45.914909
-861.647402 91.566590 465.007966 -52.814072 34.611823 -80.821342 -5.626438 -29.699845 -22.923496 -59.733617 68.147051 201.674381 8.996669 30.208789 -24.878204 44.679672 -47.362396 -42.026014 33.863668 41.257372 79.251723 28.187308 3.310725 -80.549787 39.409754 20.118211 -37.920411 -55.819615 -15.370808 -46.695722 -18.201899 18.292654 -53.357813 19.506477 13.620905 -54.225616 -26.730726 -26.479359 -89.037677 20.212688 89.633652 11.550469 146.847933 -24.604957 204.231863 -1.153412 15.653612 39.632265 25.002741 -6.374217 95.613680 23.628046 26.223611 -12.687914 -22.463799 29.529070 108.483266 -54.708442 35.134008 18.612397 1.854858 -11.475719 -44.089056
-859.363848 92.392834 466.305382 -47.351915 39.288525 -84.937965 -1.304504 -23.294748 -28.666717 -28.410361 51.028128 186.497400 10.139922 24.008199 -22.134611 41.782678 -48.092154 -39.886826 34.762111 44.190685 83.789790 28.148050 0.171880 -81.348243 38.363007 18.690543 -36.105425 -50.669062 -11.809710 -47.507640 -22.234948 9.653927 -55.636088 19.284786 17.068856 -53.343559 -26.052150 -22.462863 -84.122160 12.315485 91.214554 20.470454 145.588064 -18.048387 208.082246 -1.546937 20.100685 41.494011 23.541857 -8.460975 91.422109 23.427848 19.847838 -11.868786 -19.989361 28.107956 110.688167 -52.531996 33.285431 20.657812 0.384375 -12.266594 -40.779300
-856.924731 92.642344 467.276948 -42.818586 39.614493 -86.998667 -1.087467 -21.596496 -23.846613 -11.864321 47.009976 167.278750 11.398479 24.254649 -21.193500 40.764738 -46.140837 -39.610828 36.268287 45.486352 85.840697 28.061919 -1.327756 -84.481995 37.798468 16.878552 -34.354646 -44.913558 -8.913588 -47.079155 -27.137043 1.078505 -59.705443 18.167818 20.643881 -54.359812 -25.598256 -17.959709 -79.817918 4.320734 90.518380 28.598125 144.468651 -12.887787 209.017476 -2.076315 24.887509 42.087380 22.047501 -10.481832 87.881449 22.341037 14.392438 -11.041690 -18.766612 27.004661 110.874311 -50.718137 31.544050 21.287039 -0.587834 -12.784064 -38.587113
-854.546878 92.301568 467.984612 -37.494084 36.392132 -89.462214 -2.230564 -21.502965 -16.583614 -2.342722 43.157544 144.808589 10.801072 29.363137 -23.296877 41.353278 -41.815699 -40.954538 37.135209 47.592567 87.214515 27.928527 -2.773203 -87.880540 36.317526 14.671554 -32.350610 -38.220690 -6.006992 -46.031203 -32.674478 -7.232960 -65.073623 16.844249 24.308344 -54.814730 -25.051583 -13.927100 -75.039033 -4.088067 87.375939 37.301989 141.326340 -8.142598 211.147662 -1.955918 30.249224 44.869941 20.643425 -11.707321 85.118692 18.405818 9.111299 -10.434511 -19.012260 25.586367 108.995025 -49.428214 30.330807 20.225505 -1.042091 -13.021359 -37.550724
-852.184207 92.019547 468.597825 -35.482549 34.189629 -89.883206 -1.002072 -18.400103 -11.277770 2.776624 39.368988 121.440244 8.565502 36.280479 -26.137715 42.318565 -35.662098 -41.773512 29.567537 45.304081 88.820586 31.872111 -2.834817 -89.359570 34.480742 12.169161 -29.529080 -30.912384 -4.188339 -43.733192 -39.624847 -17.077578 -72.696900 14.792745 27.509009 -55.191118 -21.307795 -7.130712 -69.229616 -14.006881 86.277864 45.726979 134.893094 -3.883868 209.709579 -2.690074 38.002838 45.540013 20.565590 -15.628315 84.325925 15.886491 4.950917 -8.598694 -17.212382 25.454085 108.535763 -43.754147 27.217814 19.589831 -1.743275 -13.540748 -36.054315
-850.022036 91.611317 469.042008 -31.613998 30.635284 -93.965610 -0.438712 -16.742353 -8.542564 4.265609 35.273986 99.983123 4.847175 41.107763 -28.297704 42.679270 -29.413189 -40.973492 22.311829 47.317440 91.161346 34.529499 -2.700290 -90.326178 31.793520 11.059040 -26.120237 -24.281077 -3.182355 -40.822907 -48.440350 -27.076118 -83.377581 14.232143 29.248943 -53.698309 -14.832980 -0.325643 -60.502232 -23.631860 83.702192 53.411219 129.450636 -0.550120 209.440688 -3.326919 46.865818 46.284818 19.823215 -15.115453 80.153554 12.433105 -0.020349 -6.821540 -15.220325 25.305943 106.272641 -36.675155 26.532558 17.921204 -2.013486 -13.425509 -35.034824
-847.961108 91.227206 469.300683 -28.300030 27.059567 -99.948357 0.244627 -16.175928 -8.402665 4.227316 31.696801 82.359630 1.566428 43.834371 -28.226723 42.336811 -23.823649 -39.085693 14.669761 49.436465 94.635317 35.581222 -2.346234 -90.971740 27.595054 8.558484 -22.265589 -17.936032 -0.144415 -37.057297 -59.449932 -35.515150 -94.985221 12.218933 30.868535 -52.888211 -11.502477 1.554053 -56.418404 -32.911792 78.944064 60.772954 125.163094 3.925048 209.126527 -4.769162 54.638184 49.660554 18.543950 -13.504487 78.438876 10.196578 -3.689673 -3.426318 -14.550384 25.026694 103.711327 -27.233762 25.003233 16.494996 -2.208323 -13.773800 -34.850340
-846.150271 91.015433 469.348824 -25.434310 22.639910 -107.859588 0.701562 -16.241971 -5.367770 3.505664 28.733489 67.636925 -3.438325 43.693734 -26.585531 40.575050 -20.416426 -35.702997 6.070328 50.365911 100.405338 33.675684 -3.369883 -91.474722 23.009005 3.813379 -18.742801 -12.305686 5.503670 -34.564203 -74.853628 -41.896329 -108.253184 11.262341 32.808650 -50.867988 -15.395788 -5.591636 -56.737528 -40.911860 72.119339 68.837105 122.870418 7.010951 209.092485 -5.399875 61.948539 51.874344 16.564442 -9.722972 77.372656 8.630184 -8.471968 0.001871 -12.607447 27.208579 100.466106 -15.191848 25.025629 15.491593 -2.119554 -14.101921 -35.167804
